<?xml version="1.0" encoding="utf-8"?>
<!-- Generator: Adobe Illustrator 24.1.2, SVG Export Plug-In . SVG Version: 6.00 Build 0)  -->
<svg version="1.1" id="Layer_1" xmlns="http://www.w3.org/2000/svg" xmlns:xlink="http://www.w3.org/1999/xlink" x="0px" y="0px"
	 viewBox="0 0 14 14" style="enable-background:new 0 0 14 14;" xml:space="preserve" width="14px" height="14px">
<style type="text/css">
	.st0{fill:#FFFFFF;}
	.st1{fill:#282828;}
</style>
<rect x="0" class="st0" width="14" height="14"/>
<g>
	<path id="XMLID_142_" class="st1" d="M13.7,3.7c-0.2-0.6-0.6-1.1-1.2-1.2C11.4,2.2,7,2.2,7,2.2s-4.3,0-5.4,0.3
		C1,2.6,0.4,3.1,0.3,3.7C0,4.8,0,7,0,7s0,2.2,0.3,3.3c0.2,0.6,0.7,1.1,1.3,1.2C2.7,11.9,7,11.8,7,11.8s4.3,0,5.4-0.3
		c0.6-0.2,1.2-0.6,1.3-1.2C14,9.3,14,7,14,7S14,4.8,13.7,3.7z"/>
	<polygon id="XMLID_824_" class="st0" points="5.7,9.2 9.1,7 5.7,4.8 	"/>
</g>
</svg>
